<svg version="1.1" id="Layer_1" xmlns="http://www.w3.org/2000/svg" xmlns:xlink="http://www.w3.org/1999/xlink" x="0px" y="0px" viewBox="0 0 3819 2923" >
<path fill="#FFFFFF" opacity="1.000000" stroke="none" 
	d="
M3300.000000,2926.000000 
	C2323.281738,2926.000000 1346.563354,2926.000000 369.571747,2925.333252 
	C368.331146,2923.866943 367.482208,2922.636230 366.378479,2922.332764 
	C351.047333,2918.117676 335.304169,2915.068115 320.413055,2909.663818 
	C298.684723,2901.777832 277.497467,2892.532227 256.932526,2881.672363 
	C215.220993,2859.645020 177.613922,2832.131592 143.655167,2799.640381 
	C118.876137,2775.932373 98.323013,2748.558594 79.197311,2720.217529 
	C64.902679,2699.034912 53.309914,2676.326660 42.743462,2652.987793 
	C30.664221,2626.307617 21.716606,2598.776123 15.761744,2569.441895 
	C13.871445,2561.770508 11.820921,2554.885498 9.722586,2547.382080 
	C9.589561,2545.944336 9.504349,2545.125000 9.582428,2543.788574 
	C9.308797,2542.739014 8.871872,2542.206299 8.390603,2540.965332 
	C8.266697,2538.842773 8.187135,2537.428223 8.318050,2535.639160 
	C7.830621,2534.066650 7.132714,2532.868896 6.389664,2531.059326 
	C6.265527,2529.636230 6.186534,2528.824707 6.346626,2527.818359 
	C6.291533,2526.923096 5.997354,2526.222656 4.681179,2524.895508 
	C3.106136,2524.845947 2.553090,2525.423096 2.000022,2526.000000 
	C2.000000,2523.866699 2.000000,2521.733643 2.577233,2519.575684 
	C6.444963,2516.239258 6.094893,2512.736328 2.000000,2508.000000 
	C2.000000,2035.281616 2.000000,1562.563354 2.850822,1089.024658 
	C5.235292,1080.694702 7.021838,1073.226196 8.252300,1065.667358 
	C11.225940,1047.400024 13.383977,1028.983887 16.861864,1010.817505 
	C27.755215,953.917175 46.417873,899.491760 70.060127,846.682556 
	C82.674858,818.505249 96.682388,791.016235 112.940353,764.830383 
	C134.314911,730.403503 158.166199,697.701233 184.294708,666.626953 
	C201.850876,645.747742 220.041382,625.425232 240.301804,607.309448 
	C268.932983,581.708923 296.882202,555.166382 329.982025,534.943359 
	C350.026855,522.696655 368.695496,508.110046 389.117126,496.585388 
	C433.352325,471.621948 479.292450,450.375031 527.953918,434.992920 
	C564.662781,423.389099 601.535034,412.965820 639.562500,406.807404 
	C675.647583,400.963531 711.832275,396.817474 748.507263,397.186859 
	C793.155823,397.636597 837.812439,397.293793 882.465576,397.293793 
	C886.071899,397.293793 889.678162,397.293762 893.072388,397.293762 
	C895.029602,394.332520 896.718872,391.878113 898.305908,389.359375 
	C911.209412,368.881866 923.616150,348.069977 937.147400,328.016724 
	C946.586792,314.027649 957.521606,301.043976 967.855042,287.662659 
	C985.511902,264.797791 1005.075867,243.660446 1025.652588,223.401138 
	C1046.494141,202.881165 1068.741699,184.030594 1091.396606,165.561157 
	C1118.523193,143.445984 1147.769531,124.463150 1177.745605,106.707947 
	C1212.317139,86.230820 1248.129883,67.926231 1286.223633,54.718681 
	C1314.382935,44.955551 1342.617676,35.305630 1371.191895,26.868900 
	C1409.739746,15.487343 1449.437500,9.741605 1489.355957,5.596447 
	C1492.987305,5.219366 1496.675781,5.397780 1500.309814,5.037354 
	C1501.797119,4.889857 1503.832153,4.332612 1502.000000,2.000000 
	C1724.051636,2.000000 1946.103394,2.000000 2168.520752,2.762322 
	C2170.006348,4.101166 2171.079346,5.049955 2172.253418,5.198558 
	C2190.945068,7.564447 2209.771973,9.115734 2228.319580,12.299795 
	C2250.198242,16.055689 2271.971924,20.653400 2293.538574,25.920746 
	C2311.225830,30.240618 2328.621094,35.827007 2346.009033,41.287315 
	C2390.794922,55.351288 2433.412354,74.589005 2474.211426,97.595177 
	C2497.276855,110.601608 2519.214111,125.614388 2541.616699,139.790909 
	C2573.992676,160.278625 2602.468506,185.698868 2630.287598,211.713654 
	C2670.465576,249.286057 2706.084961,290.931152 2736.780518,336.684204 
	C2738.569824,339.350708 2740.831787,341.699921 2742.650391,343.923492 
	C2743.808105,343.595581 2744.199463,343.593109 2744.439453,343.401489 
	C2786.593506,309.761230 2833.151855,284.271606 2884.010254,266.181702 
	C2924.313477,251.846237 2965.791992,243.235291 3008.221191,240.494354 
	C3034.695557,238.784103 3061.454834,240.228180 3088.022461,241.546432 
	C3118.272949,243.047409 3147.768311,249.799881 3176.782471,258.208832 
	C3203.934814,266.078247 3230.438477,275.964722 3255.646484,288.807892 
	C3284.967529,303.746521 3312.930664,320.954224 3338.671631,341.621399 
	C3358.860352,357.830841 3378.422119,374.709015 3395.769775,393.989075 
	C3418.270020,418.995270 3438.199219,445.967438 3455.217773,474.947601 
	C3470.864990,501.592224 3483.022705,529.973206 3494.111084,558.780884 
	C3495.781982,563.121887 3497.938477,565.976807 3502.561279,567.513245 
	C3542.520508,580.794128 3579.407471,600.134583 3614.332275,623.596924 
	C3638.137695,639.589111 3659.866455,658.009216 3680.438232,677.790222 
	C3697.912842,694.592834 3713.275879,713.314026 3727.783936,732.798523 
	C3748.287598,760.333923 3765.915771,789.452087 3779.974365,820.782227 
	C3791.675781,846.858521 3800.777344,873.847168 3808.108398,901.393982 
	C3811.749512,915.075745 3813.815674,929.190308 3816.289551,943.163025 
	C3817.382080,949.333984 3817.605469,955.654663 3818.472656,961.872681 
	C3818.691650,963.442810 3818.966309,966.414490 3822.000000,964.000000 
	C3822.000000,967.427856 3822.000000,970.855774 3821.302734,974.967773 
	C3821.070312,976.434631 3821.535156,977.217285 3822.000000,978.000000 
	C3822.000000,980.777771 3822.000000,983.555603 3821.521973,986.999390 
	C3821.362793,988.443604 3821.681396,989.221802 3822.000000,990.000000 
	C3822.000000,1008.051697 3822.000000,1026.103394 3821.440186,1045.258301 
	C3821.253662,1046.907593 3821.626709,1047.453735 3822.000000,1048.000000 
	C3822.000000,1050.777832 3822.000000,1053.555542 3821.282227,1056.977051 
	C3821.042969,1058.413940 3821.521484,1059.207031 3822.000000,1060.000000 
	C3822.000000,1063.427856 3822.000000,1066.855835 3821.270752,1070.501221 
	C3819.801758,1072.408203 3818.656982,1074.038452 3818.399658,1075.798462 
	C3817.682129,1080.707153 3817.418457,1085.680176 3816.823242,1090.609253 
	C3814.512695,1109.750122 3809.762207,1128.314575 3804.474121,1146.844604 
	C3796.712891,1174.040649 3787.370850,1200.689453 3774.787109,1225.899780 
	C3764.446777,1246.615234 3752.362305,1266.586182 3739.623047,1285.947876 
	C3721.881592,1312.912964 3701.616699,1337.993774 3677.667969,1359.877930 
	C3671.059814,1365.916626 3664.595459,1372.112671 3657.862549,1378.426636 
	C3658.242920,1381.343018 3658.441895,1384.325195 3659.040527,1387.224731 
	C3663.473145,1408.692139 3666.195557,1430.438599 3666.207031,1452.290405 
	C3666.386230,1794.815186 3666.450928,2137.340332 3666.045898,2479.864746 
	C3666.020752,2500.928711 3662.314453,2522.049805 3659.438721,2543.023438 
	C3658.007080,2553.464355 3654.111572,2563.543457 3652.142090,2573.939941 
	C3647.986328,2595.877197 3640.720215,2616.783691 3632.308594,2637.355957 
	C3615.648926,2678.100586 3593.823242,2715.778076 3567.292236,2750.989746 
	C3539.204834,2788.266846 3505.473389,2819.479492 3468.109619,2846.894043 
	C3435.349609,2870.930908 3399.537842,2889.676758 3361.676514,2904.426758 
	C3354.278320,2907.308838 3346.728516,2909.874756 3339.104004,2912.088623 
	C3326.395752,2915.778564 3313.558594,2919.022949 3300.808594,2922.573730 
	C3299.084229,2923.054199 3297.904541,2924.301758 3300.000000,2926.000000 
M479.577728,1643.000000 
	C479.581421,1911.322021 479.584808,2179.644043 479.592834,2447.966064 
	C479.592896,2450.631592 479.626984,2453.298096 479.705963,2455.962402 
	C479.725220,2456.612305 479.955475,2457.264648 480.147156,2457.897949 
	C480.237885,2458.197266 480.444000,2458.472656 480.639313,2458.727051 
	C480.841278,2458.989990 481.093323,2459.214111 481.597168,2459.741943 
	C1383.504517,2459.741943 2285.663574,2459.741943 3187.642334,2459.741943 
	C3190.199463,2450.855713 3190.193848,1481.138550 3187.669434,1472.434326 
	C3091.050781,1472.434326 2994.284424,1472.434326 2896.853027,1472.434326 
	C2896.662354,1476.384521 2896.368408,1479.644287 2896.367676,1482.903931 
	C2896.342773,1587.234253 2896.345947,1691.564697 2896.346191,1795.895020 
	C2896.346436,1915.891724 2896.353760,2035.888306 2896.321289,2155.885010 
	C2896.320312,2159.722412 2895.915771,2163.560059 2895.693848,2167.493164 
	C2187.354980,2167.493164 1480.216919,2167.493164 773.141907,2167.493164 
	C772.587646,2165.949463 771.973877,2165.038330 771.973694,2164.127197 
	C771.891907,1833.804321 771.850769,1503.481323 771.837891,1173.158447 
	C771.837830,1170.853027 772.220215,1168.545532 772.473389,1166.244507 
	C772.503662,1165.969604 772.829041,1165.713745 773.047363,1165.476562 
	C773.272278,1165.232056 773.533569,1165.021118 774.525269,1164.109497 
	C841.073425,1164.109497 908.370178,1164.108643 975.666931,1164.109741 
	C1042.998413,1164.110840 1110.329956,1164.115112 1177.661377,1164.115845 
	C1245.326172,1164.116577 1312.990967,1164.114990 1380.655762,1164.113525 
	C1447.987305,1164.111938 1515.318726,1164.108765 1582.650269,1164.107422 
	C1649.981689,1164.105957 1717.313232,1164.105225 1784.644653,1164.105347 
	C1851.976196,1164.105469 1919.307617,1164.107544 1986.639160,1164.107544 
	C2054.303955,1164.107544 2121.968506,1164.105225 2189.633301,1164.105347 
	C2256.964844,1164.105469 2324.296387,1164.123413 2391.627930,1164.104004 
	C2458.819580,1164.084717 2526.012695,1164.206909 2592.921387,1164.023560 
	C2595.149902,1151.954712 2594.698730,880.623596 2592.420654,872.242065 
	C2576.139648,872.242065 2559.547119,872.243103 2542.954590,872.241699 
	C2526.621582,872.240295 2510.288818,872.235901 2493.955811,872.233887 
	C2477.289551,872.231873 2460.623535,872.260803 2443.957275,872.221741 
	C2427.432129,872.183044 2410.895020,872.443298 2393.455566,872.040710 
	C2393.455566,867.007629 2393.455811,863.399963 2393.455566,859.792297 
	C2393.453857,835.126343 2393.873535,810.450806 2393.314209,785.797485 
	C2392.884766,766.853760 2392.075195,747.841125 2389.936035,729.029602 
	C2385.186523,687.260315 2369.793457,649.155945 2347.587646,613.701416 
	C2334.627197,593.008484 2318.948975,574.575317 2301.211670,557.760071 
	C2271.996826,530.063904 2238.325439,509.657715 2200.785156,495.588776 
	C2165.414307,482.332733 2128.439209,477.564758 2090.950195,477.512115 
	C1919.623779,477.271484 1748.296631,477.306671 1576.970093,477.562103 
	C1560.037476,477.587372 1542.973755,478.821869 1526.202393,481.157196 
	C1477.450317,487.945770 1433.233154,506.275909 1393.572144,535.537842 
	C1350.174805,567.556641 1318.086426,608.638428 1297.234619,658.139526 
	C1282.625366,692.821228 1275.087280,729.246521 1275.370361,767.132751 
	C1275.602051,798.129883 1275.425415,829.130493 1275.328857,860.129211 
	C1275.317017,863.926270 1274.680054,867.721375 1274.267334,872.234863 
	C1269.176636,872.234863 1265.221436,872.234741 1261.266357,872.234924 
	C1099.271118,872.241333 937.275879,872.262573 775.280640,872.242004 
	C743.081360,872.237976 711.553040,876.344849 680.897949,886.581299 
	C645.780762,898.307800 613.973633,915.740234 585.305725,939.318054 
	C558.458130,961.398865 536.124817,987.278564 518.875671,1017.202942 
	C492.052185,1063.737061 479.110443,1113.865234 479.346100,1168.014648 
	C480.032196,1325.673706 479.583679,1483.337891 479.577728,1643.000000 
M1292.927002,1916.197388 
	C1315.839966,1921.242554 1339.049438,1923.048218 1362.460938,1922.354370 
	C1443.995605,1919.938477 1507.817017,1883.855957 1556.868774,1819.838623 
	C1569.509521,1803.341309 1578.960938,1784.957397 1587.482422,1766.131104 
	C1589.983887,1760.604248 1593.166138,1759.003784 1598.929321,1759.130859 
	C1625.571167,1759.718506 1652.221191,1760.142822 1678.869263,1760.194824 
	C1748.862183,1760.331299 1818.855347,1760.245483 1888.848511,1760.244263 
	C1949.175903,1760.243164 2009.504517,1760.411743 2069.829590,1760.023560 
	C2077.916748,1759.971558 2081.583984,1762.494507 2084.286865,1769.964722 
	C2090.208496,1786.331177 2099.121582,1801.233643 2109.326172,1815.333252 
	C2128.039062,1841.188965 2150.362549,1863.277100 2176.814941,1881.289673 
	C2192.049561,1891.663696 2208.034180,1900.341431 2225.200928,1907.028320 
	C2248.387939,1916.060547 2272.360840,1921.158325 2297.164062,1922.735107 
	C2364.793213,1927.034424 2425.613037,1910.004517 2478.648193,1866.593506 
	C2514.966309,1836.866211 2541.215332,1800.539307 2555.798340,1755.890381 
	C2557.319580,1751.231934 2558.385742,1746.425049 2560.071777,1740.171997 
	C2521.872803,1740.171997 2484.997559,1740.202881 2448.122314,1740.163330 
	C2410.939209,1740.123535 2373.752441,1740.273438 2336.410645,1740.078613 
	C2336.410645,1691.499390 2336.410645,1644.383179 2336.410645,1595.944824 
	C2352.040527,1595.944824 2366.963135,1595.984375 2381.885254,1595.933472 
	C2396.883789,1595.882324 2411.882080,1595.715698 2426.880371,1595.646729 
	C2441.545410,1595.579224 2456.210205,1595.595581 2470.875244,1595.530029 
	C2485.873291,1595.462891 2500.873047,1595.453979 2515.868896,1595.211182 
	C2530.669678,1594.971680 2545.516846,1595.448975 2560.820312,1594.409668 
	C2560.195312,1590.633667 2560.048584,1588.311035 2559.412842,1586.131104 
	C2553.397217,1565.502808 2544.352295,1546.241699 2532.358154,1528.453003 
	C2516.790283,1505.364502 2497.851074,1485.411499 2476.115967,1467.931030 
	C2458.063477,1453.412231 2438.504639,1441.598877 2417.299072,1432.496704 
	C2388.783447,1420.256958 2358.810303,1414.333618 2327.902100,1413.173706 
	C2250.443604,1410.266968 2185.157471,1437.261475 2132.013184,1493.590698 
	C2111.679688,1515.142944 2096.075684,1539.928833 2084.489502,1567.074951 
	C2081.259277,1574.642822 2077.180176,1576.660645 2069.507568,1576.468750 
	C2041.866455,1575.777222 2014.209961,1575.494141 1986.558594,1575.454346 
	C1905.898926,1575.338013 1825.239136,1575.414795 1744.579346,1575.413940 
	C1696.250122,1575.413574 1647.920654,1575.317139 1599.592285,1575.523438 
	C1593.496704,1575.549438 1589.758423,1574.059570 1587.515869,1567.974609 
	C1584.758423,1560.493408 1581.520264,1553.086426 1577.593262,1546.155518 
	C1550.436401,1498.228271 1512.961914,1460.661865 1463.223511,1436.566895 
	C1405.248657,1408.481812 1344.628906,1405.380737 1282.863647,1421.522461 
	C1240.991577,1432.465332 1205.421021,1454.817505 1174.327026,1484.580688 
	C1144.769409,1512.873291 1124.494385,1546.802734 1113.004517,1586.016357 
	C1112.213257,1588.716553 1111.974854,1591.578735 1111.251953,1595.644531 
	C1186.394409,1595.644531 1260.236328,1595.644531 1334.637207,1595.644531 
	C1334.637207,1643.847900 1334.637207,1690.955566 1334.637207,1739.425049 
	C1259.484985,1739.873047 1185.053833,1740.316895 1109.176270,1740.769287 
	C1110.480713,1746.051392 1111.191406,1749.864624 1112.365479,1753.529419 
	C1119.332397,1775.278442 1129.172729,1795.689331 1143.061890,1813.810303 
	C1152.547363,1826.185791 1162.683350,1838.188477 1173.588379,1849.319702 
	C1189.246948,1865.303101 1207.163452,1878.703003 1226.515747,1889.973389 
	C1246.796387,1901.784058 1268.677368,1909.795654 1292.927002,1916.197388 
M3034.526367,747.251526 
	C3030.261719,759.490845 3026.053955,771.750244 3021.720703,783.965210 
	C3013.091553,808.290405 3000.517578,830.618103 2986.404541,852.070007 
	C2962.413330,888.536682 2933.003662,919.972229 2898.190918,946.418213 
	C2868.543945,968.940186 2836.574463,987.231506 2801.552490,999.811157 
	C2784.980469,1005.763672 2767.847656,1010.150879 2750.987061,1015.307495 
	C2748.824951,1015.968750 2746.773926,1016.993103 2744.001221,1018.122009 
	C2902.930420,1059.593506 3002.000977,1158.871338 3042.785889,1316.493164 
	C3083.892578,1158.144409 3183.516846,1058.802490 3342.041504,1018.100281 
	C3183.657959,977.455322 3083.898926,878.195740 3042.490234,718.506714 
	C3039.735596,728.467102 3037.354004,737.078430 3034.526367,747.251526 
z"/>
<path fill="#000000" opacity="0.000000" stroke="none" 
	d="
M1501.062744,2.000000 
	C1503.832153,4.332612 1501.797119,4.889857 1500.309814,5.037354 
	C1496.675781,5.397780 1492.987305,5.219366 1489.355957,5.596447 
	C1449.437500,9.741605 1409.739746,15.487343 1371.191895,26.868900 
	C1342.617676,35.305630 1314.382935,44.955551 1286.223633,54.718681 
	C1248.129883,67.926231 1212.317139,86.230820 1177.745605,106.707947 
	C1147.769531,124.463150 1118.523193,143.445984 1091.396606,165.561157 
	C1068.741699,184.030594 1046.494141,202.881165 1025.652588,223.401138 
	C1005.075867,243.660446 985.511902,264.797791 967.855042,287.662659 
	C957.521606,301.043976 946.586792,314.027649 937.147400,328.016724 
	C923.616150,348.069977 911.209412,368.881866 898.305908,389.359375 
	C896.718872,391.878113 895.029602,394.332520 893.072388,397.293762 
	C889.678162,397.293762 886.071899,397.293793 882.465576,397.293793 
	C837.812439,397.293793 793.155823,397.636597 748.507263,397.186859 
	C711.832275,396.817474 675.647583,400.963531 639.562500,406.807404 
	C601.535034,412.965820 564.662781,423.389099 527.953918,434.992920 
	C479.292450,450.375031 433.352325,471.621948 389.117126,496.585388 
	C368.695496,508.110046 350.026855,522.696655 329.982025,534.943359 
	C296.882202,555.166382 268.932983,581.708923 240.301804,607.309448 
	C220.041382,625.425232 201.850876,645.747742 184.294708,666.626953 
	C158.166199,697.701233 134.314911,730.403503 112.940353,764.830383 
	C96.682388,791.016235 82.674858,818.505249 70.060127,846.682556 
	C46.417873,899.491760 27.755215,953.917175 16.861864,1010.817505 
	C13.383977,1028.983887 11.225940,1047.400024 8.252300,1065.667358 
	C7.021838,1073.226196 5.235292,1080.694702 2.850822,1088.102051 
	C2.000000,726.122498 2.000000,364.244934 2.000000,2.000000 
	C501.375061,2.000000 1000.750244,2.000000 1501.062744,2.000000 
z"/>
<path fill="#000000" opacity="0.000000" stroke="none" 
	d="
M3822.000000,963.062683 
	C3818.966309,966.414490 3818.691650,963.442810 3818.472656,961.872681 
	C3817.605469,955.654663 3817.382080,949.333984 3816.289551,943.163025 
	C3813.815674,929.190308 3811.749512,915.075745 3808.108398,901.393982 
	C3800.777344,873.847168 3791.675781,846.858521 3779.974365,820.782227 
	C3765.915771,789.452087 3748.287598,760.333923 3727.783936,732.798523 
	C3713.275879,713.314026 3697.912842,694.592834 3680.438232,677.790222 
	C3659.866455,658.009216 3638.137695,639.589111 3614.332275,623.596924 
	C3579.407471,600.134583 3542.520508,580.794128 3502.561279,567.513245 
	C3497.938477,565.976807 3495.781982,563.121887 3494.111084,558.780884 
	C3483.022705,529.973206 3470.864990,501.592224 3455.217773,474.947601 
	C3438.199219,445.967438 3418.270020,418.995270 3395.769775,393.989075 
	C3378.422119,374.709015 3358.860352,357.830841 3338.671631,341.621399 
	C3312.930664,320.954224 3284.967529,303.746521 3255.646484,288.807892 
	C3230.438477,275.964722 3203.934814,266.078247 3176.782471,258.208832 
	C3147.768311,249.799881 3118.272949,243.047409 3088.022461,241.546432 
	C3061.454834,240.228180 3034.695557,238.784103 3008.221191,240.494354 
	C2965.791992,243.235291 2924.313477,251.846237 2884.010254,266.181702 
	C2833.151855,284.271606 2786.593506,309.761230 2744.439453,343.401489 
	C2744.199463,343.593109 2743.808105,343.595581 2742.650391,343.923492 
	C2740.831787,341.699921 2738.569824,339.350708 2736.780518,336.684204 
	C2706.084961,290.931152 2670.465576,249.286057 2630.287598,211.713654 
	C2602.468506,185.698868 2573.992676,160.278625 2541.616699,139.790909 
	C2519.214111,125.614388 2497.276855,110.601608 2474.211426,97.595177 
	C2433.412354,74.589005 2390.794922,55.351288 2346.009033,41.287315 
	C2328.621094,35.827007 2311.225830,30.240618 2293.538574,25.920746 
	C2271.971924,20.653400 2250.198242,16.055689 2228.319580,12.299795 
	C2209.771973,9.115734 2190.945068,7.564447 2172.253418,5.198558 
	C2171.079346,5.049955 2170.006348,4.101166 2169.443359,2.762322 
	C2720.482422,2.000000 3270.965088,2.000000 3822.000000,2.000000 
	C3822.000000,322.041565 3822.000000,642.083496 3822.000000,963.062683 
z"/>
<path fill="#010101" opacity="0.000000" stroke="none" 
	d="
M3300.937256,2926.000000 
	C3297.904541,2924.301758 3299.084229,2923.054199 3300.808594,2922.573730 
	C3313.558594,2919.022949 3326.395752,2915.778564 3339.104004,2912.088623 
	C3346.728516,2909.874756 3354.278320,2907.308838 3361.676514,2904.426758 
	C3399.537842,2889.676758 3435.349609,2870.930908 3468.109619,2846.894043 
	C3505.473389,2819.479492 3539.204834,2788.266846 3567.292236,2750.989746 
	C3593.823242,2715.778076 3615.648926,2678.100586 3632.308594,2637.355957 
	C3640.720215,2616.783691 3647.986328,2595.877197 3652.142090,2573.939941 
	C3654.111572,2563.543457 3658.007080,2553.464355 3659.438721,2543.023438 
	C3662.314453,2522.049805 3666.020752,2500.928711 3666.045898,2479.864746 
	C3666.450928,2137.340332 3666.386230,1794.815186 3666.207031,1452.290405 
	C3666.195557,1430.438599 3663.473145,1408.692139 3659.040527,1387.224731 
	C3658.441895,1384.325195 3658.242920,1381.343018 3657.862549,1378.426636 
	C3664.595459,1372.112671 3671.059814,1365.916626 3677.667969,1359.877930 
	C3701.616699,1337.993774 3721.881592,1312.912964 3739.623047,1285.947876 
	C3752.362305,1266.586182 3764.446777,1246.615234 3774.787109,1225.899780 
	C3787.370850,1200.689453 3796.712891,1174.040649 3804.474121,1146.844604 
	C3809.762207,1128.314575 3814.512695,1109.750122 3816.823242,1090.609253 
	C3817.418457,1085.680176 3817.682129,1080.707153 3818.399658,1075.798462 
	C3818.656982,1074.038452 3819.801758,1072.408203 3821.270752,1071.359375 
	C3822.000000,1689.772461 3822.000000,2307.544922 3822.000000,2926.000000 
	C3648.625488,2926.000000 3475.250000,2926.000000 3300.937256,2926.000000 
z"/>
<path fill="#010101" opacity="0.000000" stroke="none" 
	d="
M15.601542,2570.227783 
	C21.716606,2598.776123 30.664221,2626.307617 42.743462,2652.987793 
	C53.309914,2676.326660 64.902679,2699.034912 79.197311,2720.217529 
	C98.323013,2748.558594 118.876137,2775.932373 143.655167,2799.640381 
	C177.613922,2832.131592 215.220993,2859.645020 256.932526,2881.672363 
	C277.497467,2892.532227 298.684723,2901.777832 320.413055,2909.663818 
	C335.304169,2915.068115 351.047333,2918.117676 366.378479,2922.332764 
	C367.482208,2922.636230 368.331146,2923.866943 368.649231,2925.333252 
	C246.139465,2926.000000 124.278931,2926.000000 2.000000,2926.000000 
	C2.000000,2793.291748 2.000000,2660.583252 2.000022,2526.937256 
	C2.553090,2525.423096 3.106136,2524.845947 4.459505,2525.324707 
	C5.191263,2527.106934 5.473833,2527.651123 6.107538,2528.013184 
	C6.186534,2528.824707 6.265527,2529.636230 6.211790,2531.664551 
	C6.755203,2533.925781 7.431346,2534.969727 8.107531,2536.013672 
	C8.187135,2537.428223 8.266697,2538.842773 8.200493,2541.489014 
	C8.509535,2543.249023 8.964342,2543.777100 9.419142,2544.305420 
	C9.504349,2545.125000 9.589561,2545.944336 9.505711,2547.961426 
	C11.424953,2556.181885 13.513258,2563.204834 15.601542,2570.227783 
z"/>
<path fill="#797373" opacity="1.000000" stroke="none" 
	d="
M2.000000,2508.833252 
	C6.094893,2512.736328 6.444963,2516.239258 2.577233,2518.775635 
	C2.000000,2515.222168 2.000000,2512.444336 2.000000,2508.833252 
z"/>
<path fill="#584F4F" opacity="1.000000" stroke="none" 
	d="
M3822.000000,1047.500000 
	C3821.626709,1047.453735 3821.253662,1046.907593 3821.440186,1046.180664 
	C3822.000000,1046.000000 3822.000000,1047.000000 3822.000000,1047.500000 
z"/>
<path fill="#584F4F" opacity="1.000000" stroke="none" 
	d="
M3822.000000,1059.500000 
	C3821.521484,1059.207031 3821.042969,1058.413940 3821.282227,1057.810425 
	C3822.000000,1058.000000 3822.000000,1059.000000 3822.000000,1059.500000 
z"/>
<path fill="#586161" opacity="1.000000" stroke="none" 
	d="
M3822.000000,989.500000 
	C3821.681396,989.221802 3821.362793,988.443604 3821.521973,987.832703 
	C3822.000000,988.000000 3822.000000,989.000000 3822.000000,989.500000 
z"/>
<path fill="#586161" opacity="1.000000" stroke="none" 
	d="
M3822.000000,977.500000 
	C3821.535156,977.217285 3821.070312,976.434631 3821.302734,975.825989 
	C3822.000000,976.000000 3822.000000,977.000000 3822.000000,977.500000 
z"/>
<path fill="#4385F4" opacity="1.000000" stroke="none" 
	d="
M479.578918,1642.000000 
	C479.583679,1483.337891 480.032196,1325.673706 479.346100,1168.014648 
	C479.110443,1113.865234 492.052185,1063.737061 518.875671,1017.202942 
	C536.124817,987.278564 558.458130,961.398865 585.305725,939.318054 
	C613.973633,915.740234 645.780762,898.307800 680.897949,886.581299 
	C711.553040,876.344849 743.081360,872.237976 775.280640,872.242004 
	C937.275879,872.262573 1099.271118,872.241333 1261.266357,872.234924 
	C1265.221436,872.234741 1269.176636,872.234863 1274.267334,872.234863 
	C1274.680054,867.721375 1275.317017,863.926270 1275.328857,860.129211 
	C1275.425415,829.130493 1275.602051,798.129883 1275.370361,767.132751 
	C1275.087280,729.246521 1282.625366,692.821228 1297.234619,658.139526 
	C1318.086426,608.638428 1350.174805,567.556641 1393.572144,535.537842 
	C1433.233154,506.275909 1477.450317,487.945770 1526.202393,481.157196 
	C1542.973755,478.821869 1560.037476,477.587372 1576.970093,477.562103 
	C1748.296631,477.306671 1919.623779,477.271484 2090.950195,477.512115 
	C2128.439209,477.564758 2165.414307,482.332733 2200.785156,495.588776 
	C2238.325439,509.657715 2271.996826,530.063904 2301.211670,557.760071 
	C2318.948975,574.575317 2334.627197,593.008484 2347.587646,613.701416 
	C2369.793457,649.155945 2385.186523,687.260315 2389.936035,729.029602 
	C2392.075195,747.841125 2392.884766,766.853760 2393.314209,785.797485 
	C2393.873535,810.450806 2393.453857,835.126343 2393.455566,859.792297 
	C2393.455811,863.399963 2393.455566,867.007629 2393.455566,872.040710 
	C2410.895020,872.443298 2427.432129,872.183044 2443.957275,872.221741 
	C2460.623535,872.260803 2477.289551,872.231873 2493.955811,872.233887 
	C2510.288818,872.235901 2526.621582,872.240295 2542.954590,872.241699 
	C2559.547119,872.243103 2576.139648,872.242065 2592.420654,872.242065 
	C2594.698730,880.623596 2595.149902,1151.954712 2592.921387,1164.023560 
	C2526.012695,1164.206909 2458.819580,1164.084717 2391.627930,1164.104004 
	C2324.296387,1164.123413 2256.964844,1164.105469 2189.633301,1164.105347 
	C2121.968506,1164.105225 2054.303955,1164.107544 1986.639160,1164.107544 
	C1919.307617,1164.107544 1851.976196,1164.105469 1784.644653,1164.105347 
	C1717.313232,1164.105225 1649.981689,1164.105957 1582.650269,1164.107422 
	C1515.318726,1164.108765 1447.987305,1164.111938 1380.655762,1164.113525 
	C1312.990967,1164.114990 1245.326172,1164.116577 1177.661377,1164.115845 
	C1110.329956,1164.115112 1042.998413,1164.110840 975.666931,1164.109741 
	C908.370178,1164.108643 841.073425,1164.109497 774.525269,1164.109497 
	C773.533569,1165.021118 773.272278,1165.232056 773.047363,1165.476562 
	C772.829041,1165.713745 772.503662,1165.969604 772.473389,1166.244507 
	C772.220215,1168.545532 771.837830,1170.853027 771.837891,1173.158447 
	C771.850769,1503.481323 771.891907,1833.804321 771.973694,2164.127197 
	C771.973877,2165.038330 772.587646,2165.949463 773.141907,2167.493164 
	C1480.216919,2167.493164 2187.354980,2167.493164 2895.693848,2167.493164 
	C2895.915771,2163.560059 2896.320312,2159.722412 2896.321289,2155.885010 
	C2896.353760,2035.888306 2896.346436,1915.891724 2896.346191,1795.895020 
	C2896.345947,1691.564697 2896.342773,1587.234253 2896.367676,1482.903931 
	C2896.368408,1479.644287 2896.662354,1476.384521 2896.853027,1472.434326 
	C2994.284424,1472.434326 3091.050781,1472.434326 3187.669434,1472.434326 
	C3190.193848,1481.138550 3190.199463,2450.855713 3187.642334,2459.741943 
	C2285.663574,2459.741943 1383.504517,2459.741943 481.597168,2459.741943 
	C481.093323,2459.214111 480.841278,2458.989990 480.639313,2458.727051 
	C480.444000,2458.472656 480.237885,2458.197266 480.147156,2457.897949 
	C479.955475,2457.264648 479.725220,2456.612305 479.705963,2455.962402 
	C479.626984,2453.298096 479.592896,2450.631592 479.592834,2447.966064 
	C479.584808,2179.644043 479.581421,1911.322021 479.578918,1642.000000 
M1593.028564,728.457153 
	C1584.858765,728.953552 1576.546265,727.418396 1568.638550,729.438599 
	C1566.485962,744.788940 1567.298584,864.656189 1569.492798,871.418884 
	C1585.373169,873.516602 2092.712891,872.644043 2099.581543,870.507202 
	C2101.737061,856.040710 2100.898926,736.000488 2098.281250,728.458923 
	C1930.738647,728.458923 1762.879883,728.458923 1593.028564,728.457153 
z"/>
<path fill="#15386C" opacity="1.000000" stroke="none" 
	d="
M1292.113525,1916.023560 
	C1268.677368,1909.795654 1246.796387,1901.784058 1226.515747,1889.973389 
	C1207.163452,1878.703003 1189.246948,1865.303101 1173.588379,1849.319702 
	C1162.683350,1838.188477 1152.547363,1826.185791 1143.061890,1813.810303 
	C1129.172729,1795.689331 1119.332397,1775.278442 1112.365479,1753.529419 
	C1111.191406,1749.864624 1110.480713,1746.051392 1109.176270,1740.769287 
	C1185.053833,1740.316895 1259.484985,1739.873047 1334.637207,1739.425049 
	C1334.637207,1690.955566 1334.637207,1643.847900 1334.637207,1595.644531 
	C1260.236328,1595.644531 1186.394409,1595.644531 1111.251953,1595.644531 
	C1111.974854,1591.578735 1112.213257,1588.716553 1113.004517,1586.016357 
	C1124.494385,1546.802734 1144.769409,1512.873291 1174.327026,1484.580688 
	C1205.421021,1454.817505 1240.991577,1432.465332 1282.863647,1421.522461 
	C1344.628906,1405.380737 1405.248657,1408.481812 1463.223511,1436.566895 
	C1512.961914,1460.661865 1550.436401,1498.228271 1577.593262,1546.155518 
	C1581.520264,1553.086426 1584.758423,1560.493408 1587.515869,1567.974609 
	C1589.758423,1574.059570 1593.496704,1575.549438 1599.592285,1575.523438 
	C1647.920654,1575.317139 1696.250122,1575.413574 1744.579346,1575.413940 
	C1825.239136,1575.414795 1905.898926,1575.338013 1986.558594,1575.454346 
	C2014.209961,1575.494141 2041.866455,1575.777222 2069.507568,1576.468750 
	C2077.180176,1576.660645 2081.259277,1574.642822 2084.489502,1567.074951 
	C2096.075684,1539.928833 2111.679688,1515.142944 2132.013184,1493.590698 
	C2185.157471,1437.261475 2250.443604,1410.266968 2327.902100,1413.173706 
	C2358.810303,1414.333618 2388.783447,1420.256958 2417.299072,1432.496704 
	C2438.504639,1441.598877 2458.063477,1453.412231 2476.115967,1467.931030 
	C2497.851074,1485.411499 2516.790283,1505.364502 2532.358154,1528.453003 
	C2544.352295,1546.241699 2553.397217,1565.502808 2559.412842,1586.131104 
	C2560.048584,1588.311035 2560.195312,1590.633667 2560.820312,1594.409668 
	C2545.516846,1595.448975 2530.669678,1594.971680 2515.868896,1595.211182 
	C2500.873047,1595.453979 2485.873291,1595.462891 2470.875244,1595.530029 
	C2456.210205,1595.595581 2441.545410,1595.579224 2426.880371,1595.646729 
	C2411.882080,1595.715698 2396.883789,1595.882324 2381.885254,1595.933472 
	C2366.963135,1595.984375 2352.040527,1595.944824 2336.410645,1595.944824 
	C2336.410645,1644.383179 2336.410645,1691.499390 2336.410645,1740.078613 
	C2373.752441,1740.273438 2410.939209,1740.123535 2448.122314,1740.163330 
	C2484.997559,1740.202881 2521.872803,1740.171997 2560.071777,1740.171997 
	C2558.385742,1746.425049 2557.319580,1751.231934 2555.798340,1755.890381 
	C2541.215332,1800.539307 2514.966309,1836.866211 2478.648193,1866.593506 
	C2425.613037,1910.004517 2364.793213,1927.034424 2297.164062,1922.735107 
	C2272.360840,1921.158325 2248.387939,1916.060547 2225.200928,1907.028320 
	C2208.034180,1900.341431 2192.049561,1891.663696 2176.814941,1881.289673 
	C2150.362549,1863.277100 2128.039062,1841.188965 2109.326172,1815.333252 
	C2099.121582,1801.233643 2090.208496,1786.331177 2084.286865,1769.964722 
	C2081.583984,1762.494507 2077.916748,1759.971558 2069.829590,1760.023560 
	C2009.504517,1760.411743 1949.175903,1760.243164 1888.848511,1760.244263 
	C1818.855347,1760.245483 1748.862183,1760.331299 1678.869263,1760.194824 
	C1652.221191,1760.142822 1625.571167,1759.718506 1598.929321,1759.130859 
	C1593.166138,1759.003784 1589.983887,1760.604248 1587.482422,1766.131104 
	C1578.960938,1784.957397 1569.509521,1803.341309 1556.868774,1819.838623 
	C1507.817017,1883.855957 1443.995605,1919.938477 1362.460938,1922.354370 
	C1339.049438,1923.048218 1315.839966,1921.242554 1292.113525,1916.023560 
z"/>
<path fill="#15396C" opacity="1.000000" stroke="none" 
	d="
M3034.749512,746.470642 
	C3037.354004,737.078430 3039.735596,728.467102 3042.490234,718.506714 
	C3083.898926,878.195740 3183.657959,977.455322 3342.041504,1018.100281 
	C3183.516846,1058.802490 3083.892578,1158.144409 3042.785889,1316.493164 
	C3002.000977,1158.871338 2902.930420,1059.593506 2744.001221,1018.122009 
	C2746.773926,1016.993103 2748.824951,1015.968750 2750.987061,1015.307495 
	C2767.847656,1010.150879 2784.980469,1005.763672 2801.552490,999.811157 
	C2836.574463,987.231506 2868.543945,968.940186 2898.190918,946.418213 
	C2933.003662,919.972229 2962.413330,888.536682 2986.404541,852.070007 
	C3000.517578,830.618103 3013.091553,808.290405 3021.720703,783.965210 
	C3026.053955,771.750244 3030.261719,759.490845 3034.749512,746.470642 
z"/>
<path fill="#797373" opacity="1.000000" stroke="none" 
	d="
M15.761766,2569.441895 
	C13.513258,2563.204834 11.424953,2556.181885 9.553521,2548.579590 
	C11.820921,2554.885498 13.871445,2561.770508 15.761766,2569.441895 
z"/>
<path fill="#797373" opacity="1.000000" stroke="none" 
	d="
M8.318008,2535.639160 
	C7.431346,2534.969727 6.755203,2533.925781 6.256933,2532.276367 
	C7.132714,2532.868896 7.830621,2534.066650 8.318008,2535.639160 
z"/>
<path fill="#797373" opacity="1.000000" stroke="none" 
	d="
M6.346623,2527.818359 
	C5.473833,2527.651123 5.191263,2527.106934 5.481502,2525.951416 
	C5.997354,2526.222656 6.291533,2526.923096 6.346623,2527.818359 
z"/>
<path fill="#797373" opacity="1.000000" stroke="none" 
	d="
M9.582435,2543.788574 
	C8.964342,2543.777100 8.509535,2543.249023 8.244838,2542.197266 
	C8.871872,2542.206299 9.308797,2542.739014 9.582435,2543.788574 
z"/>
<path fill="#FDFEFF" opacity="1.000000" stroke="none" 
	d="
M1594.024780,728.458008 
	C1762.879883,728.458923 1930.738647,728.458923 2098.281250,728.458923 
	C2100.898926,736.000488 2101.737061,856.040710 2099.581543,870.507202 
	C2092.712891,872.644043 1585.373169,873.516602 1569.492798,871.418884 
	C1567.298584,864.656189 1566.485962,744.788940 1568.638550,729.438599 
	C1576.546265,727.418396 1584.858765,728.953552 1594.024780,728.458008 
z"/>
</svg>